Coordinates
version=1
nRows=17
nColumns=40
inDegrees=yes

Units are S.I. units (second, meters, Newtons, ...)
If the header above contains a line with 'inDegrees', this indicates whether rotational values are in degrees (yes) or radians (no).

endheader
time	pelvis_tilt	pelvis_list	pelvis_rotation	pelvis_tx	pelvis_ty	pelvis_tz	hip_flexion_r	hip_adduction_r	hip_rotation_r	knee_angle_r	knee_angle_r_beta	ankle_angle_r	subtalar_angle_r	mtp_angle_r	hip_flexion_l	hip_adduction_l	hip_rotation_l	knee_angle_l	knee_angle_l_beta	ankle_angle_l	subtalar_angle_l	mtp_angle_l	lumbar_extension	lumbar_bending	lumbar_rotation	arm_flex_r	arm_add_r	arm_rot_r	elbow_flex_r	pro_sup_r	wrist_flex_r	wrist_dev_r	arm_flex_l	arm_add_l	arm_rot_l	elbow_flex_l	pro_sup_l	wrist_flex_l	wrist_dev_l
      4.25500000	     -6.79338266	     -3.40122460	     -3.02121617	     -0.33757036	      0.98246156	     -0.81554460	     22.46431548	    -10.24728484	    -10.71398812	     31.01706542	      0.54134992	     11.65162954	      0.00000000	      0.00000000	     20.28039553	    -21.22351744	    -10.76101360	     33.53615935	      0.58531640	     12.23128707	      0.00000000	      0.00000000	    -18.43659510	     -2.29912145	     -0.77473491	    -52.18267658	    -37.64648357	      2.59817967	    114.67683132	     87.47349595	      0.00000000	      0.00000000	     -8.52040031	    -64.06319372	     62.07586654	    105.39574091	     88.22524353	      0.00000000	      0.00000000
      4.26000000	     -7.46233590	     -3.40227122	     -3.04852816	     -0.34153637	      0.96628336	     -0.81533160	     24.71284188	    -10.50678155	    -10.31670618	     34.50854533	      0.60228774	     16.01720202	      0.00000000	      0.00000000	     22.42425409	    -21.59489237	     -9.74961807	     36.48555104	      0.63679299	     16.91198059	      0.00000000	      0.00000000	    -18.44242042	     -2.26863980	     -0.75629890	    -52.18546677	    -37.47446763	      2.59292681	    114.77087082	     87.56517134	      0.00000000	      0.00000000	     -8.38960381	    -64.07058929	     61.99894777	    105.52262410	     88.24164829	      0.00000000	      0.00000000
      4.26500000	     -7.90785046	     -3.41707442	     -3.09421925	     -0.34662592	      0.95071834	     -0.81518641	     26.87483840	    -10.64045659	     -9.60654094	     38.17237080	      0.66623355	     20.01418050	      0.00000000	      0.00000000	     24.58322454	    -21.96562422	     -8.54196199	     39.65576873	      0.69212373	     20.85992616	      0.00000000	      0.00000000	    -18.86626215	     -2.24873496	     -0.70445283	    -51.89645571	    -37.66760898	      2.67397377	    114.73480955	     87.45492429	      0.00000000	      0.00000000	     -7.99333630	    -64.32953911	     61.89606630	    105.73086935	     88.21736441	      0.00000000	      0.00000000
      4.27000000	     -8.86141660	     -3.34814817	     -3.21656864	     -0.35329323	      0.93473868	     -0.81488984	     30.86102004	    -11.14109241	     -8.83102450	     43.88751080	      0.76598156	     23.45387999	      0.00000000	      0.00000000	     28.03210560	    -22.38975585	     -7.27803014	     44.01215941	      0.76815709	     23.74906518	      0.00000000	      0.00000000	    -18.79450400	     -2.27816433	      0.94811559	    -53.07050107	    -35.87624077	      1.04056939	    114.87331769	     87.74641754	      0.00000000	      0.00000000	     -0.84409853	    -64.68375114	     68.91392921	    105.73495414	     88.21605866	      0.00000000	      0.00000000
      4.27500000	     -9.71345322	     -3.24474639	     -3.26349265	     -0.36025368	      0.91910900	     -0.81446239	     35.12857885	    -11.67616423	     -7.63966812	     49.68664464	      0.86719554	     25.11857648	      0.00000000	      0.00000000	     31.94673507	    -22.94809513	     -6.04908889	     48.91634540	      0.85375129	     25.99640744	      0.00000000	      0.00000000	    -18.97872714	     -2.39532692	      0.95095296	    -52.56628360	    -35.96265281	      1.12555227	    114.90714346	     87.70879114	      0.00000000	      0.00000000	     -0.22783291	    -64.88904739	     68.90192236	    105.98734521	     88.19247834	      0.00000000	      0.00000000
      4.28000000	    -10.40771677	     -3.22548542	     -3.36455907	     -0.36668385	      0.90349328	     -0.81377595	     38.98843465	    -11.89562289	     -6.19487211	     54.52977223	      0.95172407	     25.44600764	      0.00000000	      0.00000000	     35.86966530	    -23.65929638	     -4.76246830	     53.70280108	      0.93729070	     26.68031045	      0.00000000	      0.00000000	    -19.22333245	     -2.44408578	      1.84412760	    -52.98604403	    -35.14688649	      0.27405823	    115.00311868	     87.78875015	      0.00000000	      0.00000000	      3.85045062	    -65.12749167	     72.58620161	    106.13540715	     88.20382213	      0.00000000	      0.00000000
      4.28500000	    -10.87429748	     -2.94554024	     -3.35064310	     -0.37289858	      0.88841290	     -0.81340954	     42.49306890	    -12.35014389	     -4.76154691	     58.82830424	      1.02674760	     25.49226378	      0.00000000	      0.00000000	     39.34304946	    -23.87011438	     -3.56970553	     57.91190616	      1.01075344	     27.22592602	      0.00000000	      0.00000000	    -19.78944246	     -2.74904639	      1.68597520	    -52.46518581	    -35.32770274	      0.40590481	    115.19343969	     87.71022124	      0.00000000	      0.00000000	      4.35944079	    -65.47963489	     72.64746726	    106.58910224	     88.16177315	      0.00000000	      0.00000000
      4.29000000	    -11.57114797	     -2.74359874	     -3.27876411	     -0.37890443	      0.87329520	     -0.81287641	     46.01173967	    -12.57896452	     -3.42783834	     62.83906459	      1.09674858	     25.90376428	      0.00000000	      0.00000000	     43.01242550	    -23.96790294	     -2.18996081	     61.98263126	      1.08180099	     27.58550797	      0.00000000	      0.00000000	    -20.01237597	     -2.96680993	      2.40667505	    -52.81316175	    -34.43896758	     -0.37422197	    115.08190790	     87.82325219	      0.00000000	      0.00000000	      8.67096065	    -65.50600191	     76.71067426	    106.61879751	     88.21084655	      0.00000000	      0.00000000
      4.29500000	    -12.09871403	     -2.58534198	     -3.20385247	     -0.38430628	      0.85873253	     -0.81215494	     49.05531661	    -12.82180394	     -2.55674129	     66.46915896	      1.16010567	     26.29579770	      0.00000000	      0.00000000	     46.20779272	    -24.23818796	     -1.32375507	     65.71689428	      1.14697618	     27.88098565	      0.00000000	      0.00000000	    -20.44886413	     -3.16897423	      2.27708116	    -52.29035544	    -34.51480252	     -0.17395640	    114.96280495	     87.81064083	      0.00000000	      0.00000000	      9.18175501	    -65.70154950	     76.92072509	    106.84239498	     88.21554995	      0.00000000	      0.00000000
      4.30000000	    -12.60338729	     -2.34258172	     -3.19653607	     -0.38909843	      0.84451686	     -0.81123940	     51.77208181	    -13.03740225	     -1.79741069	     69.66310018	      1.21585047	     27.34496825	      0.00000000	      0.00000000	     49.04321561	    -24.56355191	     -0.87031998	     69.08194062	      1.20570732	     28.51724315	      0.00000000	      0.00000000	    -20.84710863	     -3.51096267	      2.10929251	    -51.75955519	    -34.65433178	      0.17940543	    114.91413432	     87.79192412	      0.00000000	      0.00000000	      9.61026361	    -65.95990958	     77.25271077	    107.17827866	     88.19923603	      0.00000000	      0.00000000
      4.30500000	    -13.14965260	     -2.31030103	     -2.95391180	     -0.39336990	      0.83057221	     -0.81085490	     54.11855111	    -13.38694761	     -1.63443701	     72.41252924	      1.26383705	     28.02439221	      0.00000000	      0.00000000	     51.82709845	    -24.86001775	     -0.18800848	     72.13795914	      1.25904490	     28.91017864	      0.00000000	      0.00000000	    -21.12163873	     -3.51766460	      2.55079231	    -52.03921299	    -34.15361830	     -0.24772041	    114.80952085	     87.88143729	      0.00000000	      0.00000000	     13.28840333	    -65.74352547	     81.01363367	    107.19365064	     88.23587110	      0.00000000	      0.00000000
      4.31000000	    -13.69968912	     -2.35619412	     -2.32414576	     -0.39653147	      0.81690562	     -0.81089327	     56.04726779	    -14.10796157	     -1.92513880	     74.94481291	      1.30803374	     29.45092429	      0.00000000	      0.00000000	     54.46552515	    -24.94909263	      0.60687854	     74.79060843	      1.30534237	     29.76047264	      0.00000000	      0.00000000	    -21.39370004	     -3.31592529	      1.89717999	    -51.54241082	    -34.34228673	      0.19117410	    114.49947232	     87.86756683	      0.00000000	      0.00000000	     13.46180602	    -65.74825355	     81.41808822	    107.22219770	     88.23858178	      0.00000000	      0.00000000
      4.31500000	    -14.03996118	     -2.29297288	     -1.76038049	     -0.39961566	      0.80392121	     -0.81135451	     57.65267614	    -14.93040203	     -2.02812452	     77.27307757	      1.34866963	     30.85395774	      0.00000000	      0.00000000	     56.50215248	    -24.96210333	      1.08149405	     77.04870394	      1.34475357	     30.87516565	      0.00000000	      0.00000000	    -21.86650610	     -3.20625107	      1.21840544	    -51.19657556	    -34.89777341	      0.68843628	    114.45997213	     87.87858384	      0.00000000	      0.00000000	     13.59716516	    -65.69755626	     81.84489514	    107.38924316	     88.22991323	      0.00000000	      0.00000000
      4.32000000	    -14.51531330	     -2.29214461	     -1.22162128	     -0.40278196	      0.79120594	     -0.81182922	     59.26575302	    -15.71317613	     -2.08784907	     79.38189325	      1.38547540	     32.22040653	      0.00000000	      0.00000000	     58.59789132	    -24.89078959	      1.78200369	     79.11485222	      1.38081466	     31.82561031	      0.00000000	      0.00000000	    -22.16902843	     -3.04423446	      0.49976061	    -50.46395635	    -35.58343329	      1.42842596	    114.20372677	     87.93196237	      0.00000000	      0.00000000	     13.90499547	    -65.60133411	     82.56830446	    107.42654064	     88.25132123	      0.00000000	      0.00000000
      4.32500000	    -14.57891064	     -2.37302522	     -0.59656757	     -0.40501853	      0.77955552	     -0.81257734	     60.25035123	    -16.62034344	     -2.31753221	     81.35643171	      1.41993760	     33.69363349	      0.00000000	      0.00000000	     60.08152572	    -24.88087077	      2.35034363	     80.97023796	      1.41319725	     33.05089932	      0.00000000	      0.00000000	    -22.89144537	     -2.72066217	     -0.22689794	    -49.95877305	    -36.35358269	      2.01336726	    114.26246233	     87.91136027	      0.00000000	      0.00000000	     14.05307772	    -65.40948840	     83.15596014	    107.43013519	     88.25086058	      0.00000000	      0.00000000
      4.33000000	    -14.90140251	     -2.38052909	     -0.16828335	     -0.40793224	      0.76751888	     -0.81265233	     61.70479886	    -17.32760094	     -2.28975447	     83.36406537	      1.45497742	     35.01601088	      0.00000000	      0.00000000	     61.84432263	    -24.90685895	      2.93844795	     82.81863463	      1.44545786	     34.04845187	      0.00000000	      0.00000000	    -23.26858913	     -2.57397243	     -0.88256247	    -49.29324452	    -37.27773189	      2.81069248	    114.46285157	     87.91944585	      0.00000000	      0.00000000	     14.24646728	    -65.41626206	     83.88330425	    107.57641872	     88.26732310	      0.00000000	      0.00000000
      4.33500000	    -14.97385724	     -2.42590022	      0.19895784	     -0.41035964	      0.75644130	     -0.81283325	     62.80952775	    -17.98218791	     -2.30672091	     85.22325375	      1.48742638	     35.98298502	      0.00000000	      0.00000000	     63.28834226	    -25.04984424	      3.43480546	     84.58691918	      1.47632024	     34.89165377	      0.00000000	      0.00000000	    -23.87228104	     -2.38308227	     -1.41875012	    -48.64296227	    -38.36655696	      3.66040023	    114.57548357	     87.95916813	      0.00000000	      0.00000000	     14.54297455	    -65.30203923	     84.57723445	    107.64175638	     88.29651692	      0.00000000	      0.00000000
